<?xml version="1.0" encoding="UTF-8"?>
<svg xmlns="http://www.w3.org/2000/svg" viewBox="0 0 1024 682" role="img">
  <defs>
    <marker id="arr" markerWidth="8" markerHeight="8" refX="7" refY="4" orient="auto">
      <path d="M0,0 L8,4 L0,8 Z" fill="#6b7c90"/>
    </marker>
    <style>
      text { font-family: "Nanum Gothic", "Malgun Gothic", sans-serif; }
      .title { font-size: 22px; font-weight: 700; fill: #163a6e; }
      .box { fill: #163a6e; }
      .box-t { fill: #fff; font-size: 14px; font-weight: 700; }
      .dia { fill: #e88c3a; }
      .dia-t { fill: #fff; font-size: 13px; font-weight: 700; }
      .lbl { fill: #7a8694; font-size: 12px; }
      .grp { fill: none; stroke: #d04a4a; stroke-width: 2; stroke-dasharray: 8 6; }
      .grp-t { fill: #d04a4a; font-size: 15px; font-weight: 700; }
      .line { fill: none; stroke: #6b7c90; stroke-width: 2; marker-end: url(#arr); }
      .dash { fill: none; stroke: #6b7c90; stroke-width: 2; stroke-dasharray: 6 5; }
      .sec { fill: #d04a4a; font-size: 12px; font-weight: 700; }
    </style>
  </defs>

  <rect width="1024" height="682" fill="#f5f7fa"/>
  <text x="512" y="42" text-anchor="middle" class="title">동작 흐름도</text>

  <rect x="120" y="252" width="330" height="188" rx="8" class="grp"/>
  <text x="132" y="242" class="grp-t">워치독</text>
  <rect x="488" y="322" width="502" height="210" rx="8" class="grp"/>
  <text x="500" y="312" class="grp-t">112상황실 / 경비실</text>

  <polyline points="88,118 88,148 210,148" class="line"/>
  <polyline points="270,172 300,172" class="line"/>
  <polyline points="300,172 175,172 175,94 148,94" class="line"/>
  <text x="205" y="162" class="lbl">일반소음</text>

  <polyline points="356,200 356,236" class="line"/>
  <text x="364" y="230" class="lbl">비명</text>
  <polyline points="356,236 215,236 215,272" class="line"/>
  <polyline points="356,236 356,272" class="line"/>
  <polyline points="356,236 572,236 572,272" class="line"/>

  <polyline points="215,320 285,372" class="line"/>
  <polyline points="356,320 285,372" class="line"/>
  <polyline points="229,400 72,400 72,94" class="line"/>
  <text x="298" y="392" class="sec">25초</text>

  <polyline points="636,296 668,296 668,392 620,392" class="line"/>
  <text x="640" y="286" class="lbl">유선/무선</text>

  <polyline points="680,416 748,416" class="line"/>
  <line x1="620" y1="392" x2="695" y2="354" class="dash"/>
  <line x1="808" y1="392" x2="715" y2="354" class="dash"/>

  <polyline points="752,318 810,256" class="line"/>
  <text x="760" y="308" class="lbl">Yes</text>
  <polyline points="724,318 870,128" class="line"/>
  <polyline points="870,208 870,128" class="line"/>

  <rect x="28" y="70" width="120" height="48" rx="10" class="box"/>
  <text x="88" y="100" text-anchor="middle" class="box-t">비명입력대기</text>

  <rect x="150" y="148" width="120" height="48" rx="10" class="box"/>
  <text x="210" y="178" text-anchor="middle" class="box-t">소음발생</text>

  <polygon points="356,144 412,172 356,200 300,172" class="dia"/>
  <text x="356" y="177" text-anchor="middle" class="dia-t">비명인식</text>

  <rect x="155" y="272" width="120" height="48" rx="10" class="box"/>
  <text x="215" y="302" text-anchor="middle" class="box-t">경광등 점멸</text>

  <rect x="296" y="272" width="120" height="48" rx="10" class="box"/>
  <text x="356" y="302" text-anchor="middle" class="box-t">경고 방송</text>

  <polygon points="285,372 341,400 285,428 229,400" class="dia"/>
  <text x="285" y="405" text-anchor="middle" class="dia-t">알람시간</text>

  <rect x="508" y="272" width="128" height="48" rx="10" class="box"/>
  <text x="572" y="302" text-anchor="middle" class="box-t">비상 호출</text>

  <rect x="560" y="392" width="120" height="48" rx="10" class="box"/>
  <text x="620" y="422" text-anchor="middle" class="box-t">호출 접수</text>

  <rect x="748" y="392" width="120" height="48" rx="10" class="box"/>
  <text x="808" y="422" text-anchor="middle" class="box-t">위치확인</text>

  <polygon points="700,318 756,346 700,374 644,346" class="dia"/>
  <text x="700" y="351" text-anchor="middle" class="dia-t">음성통화</text>

  <rect x="810" y="208" width="120" height="48" rx="10" class="box"/>
  <text x="870" y="238" text-anchor="middle" class="box-t">통화/감청</text>

  <rect x="810" y="80" width="120" height="48" rx="10" class="box"/>
  <text x="870" y="110" text-anchor="middle" class="box-t">긴급 출동</text>
</svg>
